PathFileType	4	(X/Y/Z)	D:\TRACE\spot_10-12-23\spot_arm_body_motion_3_8-v60.trc
DataRate	CameraRate	NumFrames	NumMarkers	Units	OrigDataRate	OrigDataStartFrame	OrigNumFrames
100.00	100.00	      24	9	mm	100.00	2626	      7000
Frame#	Time	front left toe			Front right toe			aft left toe			aft right toe			Arm			FL body			FR body			AL Body			AR Body			
		X1	Y1	Z1	X2	Y2	Z2	X3	Y3	Z3	X4	Y4	Z4	X5	Y5	Z5	X6	Y6	Z6	X7	Y7	Z7	X8	Y8	Z8	X9	Y9	Z9	

2626	26.250	-153.78867	112.49249	-432.01312	259.73743	1.78160	-480.90396	-76.87527	24.25369	218.60995	372.64581	21.61500	134.91522	14.96732	783.68060	-747.75592	-4.92114	584.91083	-476.80347	146.63924	591.96606	-490.13306	68.64162	565.96716	404.12500	218.52600	567.08105	393.65915	
2627	26.260	-155.00070	128.78540	-431.03720	260.02072	1.66881	-480.97659	-76.48562	24.32598	218.57912	372.78162	21.41014	134.14076	15.13457	783.34387	-747.67706	-4.81010	584.69867	-475.97125	147.33951	591.63135	-489.56219	69.55018	565.48499	404.46246	219.82185	566.64685	394.09750	
2628	26.270	-153.00531	141.71875	-430.28549	260.23444	1.53336	-481.09995	-76.10851	24.43501	218.80135	373.16891	21.52127	134.37991	15.11439	782.83203	-747.67523	-4.59807	584.53162	-475.25784	147.35927	591.02039	-488.91708	70.93671	565.37256	405.58560	220.56789	566.24530	394.55676	
2629	26.280	-152.66295	151.35333	-429.25528	260.37143	1.37155	-481.27878	-75.76170	24.42567	218.92622	373.42221	21.41808	134.21918	15.89645	782.56512	-747.70197	-4.65124	584.42401	-474.72028	147.28384	591.04352	-489.01367	71.30153	565.09320	405.97278	221.20541	565.89227	395.10840	
2630	26.290	-152.92265	158.45204	-428.74142	260.42450	1.17968	-481.51770	-75.12444	24.37940	218.92010	373.76559	21.64025	134.30013	16.74941	782.18646	-747.75220	-4.45363	583.93909	-473.92712	147.01511	590.97015	-488.07162	71.64881	564.84082	406.64310	221.53711	565.84570	395.77844	
2631	26.300	-151.61612	164.04903	-428.68338	260.38654	0.95406	-481.82141	-74.96793	24.31364	218.92780	374.03674	21.78478	134.31949	17.67318	781.85168	-747.82104	-4.46374	583.85596	-473.60190	147.10638	590.66608	-487.46423	72.03510	564.62653	407.14444	221.83473	565.61902	396.16534	
2632	26.310	-153.09767	168.07874	-427.97818	260.25037	0.69100	-482.19464	-74.75651	24.22267	218.98846	374.56329	21.88517	134.38652	18.47957	781.61157	-747.81372	-4.41114	583.45538	-473.09082	147.27071	590.44757	-487.13330	71.89967	564.46771	407.52576	221.79576	565.37561	396.53879	
2633	26.320	-151.75499	169.61017	-427.03720	260.00879	0.38680	-482.64194	-74.48449	24.13342	218.94122	374.99002	22.01779	134.61349	19.24197	781.48956	-747.85028	-4.64014	583.04211	-472.46088	146.97351	590.32971	-486.80353	71.74955	564.16162	407.84753	221.39772	565.16370	396.99335	
2634	26.330	-149.64172	169.00780	-425.15430	259.84143	0.19239	-483.00589	-74.20253	23.97030	219.08014	375.14233	22.02120	134.39973	20.07378	781.54791	-747.75897	-5.25809	582.85699	-472.26337	146.54337	590.10577	-486.37354	71.68317	564.10687	408.30624	221.11610	565.00391	397.34158	
2635	26.340	-146.65425	163.37245	-423.17123	260.32242	0.57665	-482.78998	-73.76141	23.90475	219.22894	375.43558	22.16582	134.45293	22.12499	781.87378	-747.74036	-6.00760	582.68073	-471.90332	145.54559	590.01135	-486.05478	71.62116	563.77130	408.43976	220.81371	564.99640	397.46988	
2636	26.350	-142.19341	151.77632	-421.77438	260.53638	0.92594	-482.87909	-73.40574	23.87438	219.34627	375.73694	22.30022	134.26314	25.16580	782.33466	-747.63568	-7.23510	582.45172	-471.62674	144.46729	589.80225	-486.12262	70.95003	563.75336	408.90021	220.58672	565.01300	397.54037	
2637	26.360	-137.31841	135.71413	-420.93057	260.67828	1.23771	-482.99640	-73.01076	23.81578	219.42375	375.90906	22.23455	134.15082	29.06021	782.90344	-747.12079	-8.37825	582.32849	-471.27060	143.37195	589.67395	-485.81293	70.81657	563.74036	409.21179	220.32472	565.06323	397.60635	
2638	26.370	-130.95415	119.95982	-420.13168	260.94144	1.39755	-483.07220	-72.79702	23.75074	219.41762	376.24948	22.30707	134.11324	32.89228	783.64349	-746.99164	-9.07969	582.15997	-471.05273	142.20403	589.66345	-485.49750	69.91589	563.42963	409.56815	219.71611	565.06458	397.82858	
2639	26.380	-126.22031	102.79675	-420.32660	261.22269	1.61508	-483.10873	-72.56567	23.63719	219.41045	376.50793	22.53693	134.11874	35.97676	784.13495	-746.56555	-9.61501	581.99139	-471.01074	141.89088	589.64337	-485.39255	68.86134	563.53540	409.76996	218.36850	565.15253	398.02234	
2640	26.390	-124.14625	87.81947	-420.74823	261.69540	1.27776	-482.94247	-72.28716	23.34063	219.31982	376.80917	22.85960	134.37300	38.00464	784.42340	-746.52917	-9.73935	581.42682	-471.03220	141.87721	589.37231	-485.21558	67.49100	563.67896	409.60034	217.03867	565.21405	398.14755	
2641	26.400	-122.83453	77.37026	-420.33032	262.72656	0.75331	-482.69232	-72.07333	22.95797	219.25641	376.93994	23.32911	134.23270	38.72038	784.42255	-746.15210	-9.56392	580.78137	-471.37054	141.87759	588.84851	-485.15732	65.59868	563.30042	409.60446	215.02570	565.07007	398.66953	
2642	26.410	-123.05381	71.12318	-418.60413	263.63644	0.76271	-482.39349	-72.02939	22.59070	219.17290	376.90549	23.39349	134.46867	37.96350	784.23889	-745.98560	-9.19939	580.43451	-471.79794	142.53224	588.16541	-485.12265	63.73344	563.05011	409.49356	213.12704	564.81268	398.99100	
2643	26.420	-124.37766	66.98401	-416.62668	264.33243	0.83038	-482.17770	-71.90884	22.23781	219.06201	377.49451	23.57734	135.31334	36.48666	783.93323	-745.67749	-8.83499	580.05524	-472.17734	143.03989	587.64502	-484.86746	61.28975	562.64130	409.13602	211.14601	564.27826	399.19470	
2644	26.430	-126.25478	64.52288	-416.13113	264.72256	0.88803	-482.04721	-71.82945	22.06736	219.04527	377.94995	23.59348	135.57193	34.46177	783.54272	-745.46399	-8.87799	579.61127	-472.57599	142.96536	587.01129	-485.05530	59.78172	562.57605	408.85919	209.48466	563.93121	399.25208	
2645	26.440	-129.36606	61.56104	-417.21899	265.21548	1.13727	-481.89386	-71.70779	21.99859	219.10474	378.06442	23.51591	135.70966	32.00068	783.48291	-745.35449	-9.30644	579.32928	-472.70129	142.29323	586.23401	-485.12457	57.69339	562.43842	408.49341	208.05330	563.35718	399.14117	
2646	26.450	-132.39520	57.06776	-419.99677	265.48563	1.47719	-481.81699	-71.29897	21.95614	219.23047	378.34000	23.42149	135.49799	30.12158	783.08148	-745.00323	-10.41092	578.88892	-472.61566	141.58818	585.73676	-485.23712	57.22855	562.36005	408.88141	207.17714	563.28033	399.15054	
2647	26.460	-135.40295	49.78723	-423.51187	264.30997	1.53269	-482.70959	-70.69923	21.81521	219.39809	378.73175	23.48649	135.50465	28.73465	783.00311	-744.81042	-11.92673	578.80573	-472.58920	139.42244	585.93878	-485.42734	55.55458	562.65381	408.75262	206.84746	563.04034	399.06827	
2648	26.470	-137.15273	44.49168	-425.80954	265.05066	2.87326	-482.03775	-70.22205	21.64003	219.51625	378.90521	23.31206	135.31738	27.81441	783.04340	-744.89453	-13.84431	578.45978	-472.28497	138.12914	585.28912	-485.83994	55.45073	562.55847	408.74356	206.56496	562.91742	398.85516	
2649	26.480	-137.71257	41.01719	-425.32852	265.07208	3.24850	-482.15869	-69.70642	21.59538	219.71494	379.25610	23.28752	135.10277	28.15827	783.12219	-744.86755	-16.16180	578.28528	-472.23062	135.68282	585.09308	-485.71060	55.14875	562.46838	408.71255	206.13724	562.74420	398.40445	
